<svg width="102" height="102" viewBox="0 0 102 102" fill="none" xmlns="http://www.w3.org/2000/svg">
<path d="M97.7429 74.2507V88.325C97.7482 89.6316 97.4801 90.9248 96.9556 92.122C96.4311 93.3191 95.6619 94.3938 94.6972 95.2771C93.7325 96.1604 92.5936 96.8328 91.3534 97.2514C90.1133 97.67 88.7992 97.8255 87.4953 97.7079C73.0304 96.1392 59.1357 91.2062 46.9279 83.3052C35.5701 76.1023 25.9407 66.4919 18.7235 55.1566C10.7791 42.9176 5.83518 28.9831 4.2922 14.4819C4.17473 13.1846 4.32922 11.8771 4.74582 10.6426C5.16243 9.40809 5.83202 8.2737 6.71198 7.31164C7.59194 6.34958 8.66297 5.58092 9.85689 5.0546C11.0508 4.52828 12.3415 4.25583 13.6467 4.25461H27.7489C30.0302 4.2322 32.2418 5.03844 33.9716 6.52306C35.7013 8.00769 36.8311 10.0694 37.1504 12.3239C37.7456 16.8279 38.8495 21.2504 40.4409 25.5068C41.0734 27.1859 41.2102 29.0109 40.8353 30.7653C40.4604 32.5197 39.5894 34.1301 38.3256 35.4057L32.3556 41.3638C39.0474 53.109 48.7916 62.8339 60.5601 69.5124L66.53 63.5543C67.8081 62.2929 69.4217 61.4236 71.1796 61.0495C72.9375 60.6753 74.7661 60.8119 76.4486 61.4431C80.7134 63.0314 85.1446 64.1331 89.6577 64.7271C91.9411 65.0486 94.0265 66.1965 95.5173 67.9524C97.008 69.7084 97.8001 71.9499 97.7429 74.2507Z" stroke="#23A67E" stroke-width="7" stroke-linecap="round" stroke-linejoin="round"/>
</svg>
